# CAD Exchanger 3.5.3 (cadexchanger.com)
# Object Count: 1
mtllib masa.mtl
g marija irena
v 800.000000 702.000000 400.000000
v 800.000000 702.000000 -400.000000
v 800.000000 742.000000 -400.000000
v 800.000000 742.000000 400.000000
v -800.000000 702.000000 -400.000000
v -800.000000 742.000000 -400.000000
v -800.000000 702.000000 400.000000
v -800.000000 742.000000 400.000000
vn 1.000000 -0.000000 -0.000000
vn 1.000000 -0.000000 -0.000000
vn 1.000000 -0.000000 -0.000000
vn 1.000000 -0.000000 -0.000000
vn -0.000000 -0.000000 -1.000000
vn -0.000000 -0.000000 -1.000000
vn -0.000000 -0.000000 -1.000000
vn -0.000000 -0.000000 -1.000000
vn -1.000000 -0.000000 0.000000
vn -1.000000 -0.000000 0.000000
vn -1.000000 -0.000000 0.000000
vn -1.000000 -0.000000 0.000000
vn -0.000000 -0.000000 1.000000
vn -0.000000 -0.000000 1.000000
vn -0.000000 -0.000000 1.000000
vn -0.000000 -0.000000 1.000000
vn 0.000000 1.000000 0.000000
vn 0.000000 1.000000 0.000000
vn 0.000000 1.000000 0.000000
vn 0.000000 1.000000 0.000000
vn -0.000000 -1.000000 -0.000000
vn -0.000000 -1.000000 -0.000000
vn -0.000000 -1.000000 -0.000000
vn -0.000000 -1.000000 -0.000000
usemtl Material_1
f 3//3 4//2 1//1
f 2//4 3//3 1//1
f 6//7 3//6 2//5
f 5//8 6//7 2//5
f 8//11 6//10 5//9
f 7//12 8//11 5//9
f 4//15 8//14 7//13
f 1//16 4//15 7//13
f 3//18 6//19 4//17
f 8//20 4//17 6//19
f 7//23 2//21 1//24
f 7//23 5//22 2//21
g marija irena-1
v -603.623156 700.000000 -241.193340
v -516.355792 700.000000 -241.193340
v -603.623156 702.000000 -241.193340
v -516.355792 702.000000 -241.193340
v -516.355792 700.000000 241.548607
v -516.355792 702.000000 241.548607
v -603.623156 700.000000 241.548607
v -603.623156 702.000000 241.548607
vn 0.000000 -0.000000 -1.000000
vn 0.000000 -0.000000 -1.000000
vn 0.000000 -0.000000 -1.000000
vn 0.000000 -0.000000 -1.000000
vn 1.000000 -0.000000 0.000000
vn 1.000000 -0.000000 0.000000
vn 1.000000 -0.000000 0.000000
vn 1.000000 -0.000000 0.000000
vn -0.000000 -0.000000 1.000000
vn -0.000000 -0.000000 1.000000
vn -0.000000 -0.000000 1.000000
vn -0.000000 -0.000000 1.000000
vn -1.000000 -0.000000 -0.000000
vn -1.000000 -0.000000 -0.000000
vn -1.000000 -0.000000 -0.000000
vn -1.000000 -0.000000 -0.000000
vn 0.000000 1.000000 -0.000000
vn 0.000000 1.000000 -0.000000
vn 0.000000 1.000000 -0.000000
vn 0.000000 1.000000 -0.000000
vn -0.000000 -1.000000 0.000000
vn -0.000000 -1.000000 0.000000
vn -0.000000 -1.000000 0.000000
vn -0.000000 -1.000000 0.000000
usemtl Material_2
f 11//27 12//26 10//25
f 9//28 11//27 10//25
f 12//31 14//30 13//29
f 10//32 12//31 13//29
f 14//35 16//34 15//33
f 13//36 14//35 15//33
f 16//39 11//38 9//37
f 15//40 16//39 9//37
f 16//43 12//41 11//44
f 16//43 14//42 12//41
f 13//47 9//45 10//46
f 15//48 9//45 13//47
g marija irena-2
v 603.623156 700.000000 -241.193340
v 516.355792 700.000000 -241.193340
v 516.355792 702.000000 -241.193340
v 603.623156 702.000000 -241.193340
v 516.355792 700.000000 241.548607
v 516.355792 702.000000 241.548607
v 603.623156 700.000000 241.548607
v 603.623156 702.000000 241.548607
vn -0.000000 0.000000 -1.000000
vn -0.000000 0.000000 -1.000000
vn -0.000000 0.000000 -1.000000
vn -0.000000 0.000000 -1.000000
vn -1.000000 -0.000000 -0.000000
vn -1.000000 -0.000000 -0.000000
vn -1.000000 -0.000000 -0.000000
vn -1.000000 -0.000000 -0.000000
vn 0.000000 -0.000000 1.000000
vn 0.000000 -0.000000 1.000000
vn 0.000000 -0.000000 1.000000
vn 0.000000 -0.000000 1.000000
vn 1.000000 -0.000000 -0.000000
vn 1.000000 -0.000000 -0.000000
vn 1.000000 -0.000000 -0.000000
vn 1.000000 -0.000000 -0.000000
vn -0.000000 1.000000 -0.000000
vn -0.000000 1.000000 -0.000000
vn -0.000000 1.000000 -0.000000
vn -0.000000 1.000000 -0.000000
vn 0.000000 -1.000000 0.000000
vn 0.000000 -1.000000 0.000000
vn 0.000000 -1.000000 0.000000
vn 0.000000 -1.000000 0.000000
usemtl Material_2
f 19//51 20//50 17//49
f 18//52 19//51 17//49
f 22//55 19//54 18//53
f 21//56 22//55 18//53
f 24//59 22//58 21//57
f 23//60 24//59 21//57
f 20//63 24//62 23//61
f 17//64 20//63 23//61
f 22//67 20//65 19//68
f 22//67 24//66 20//65
f 23//71 18//69 17//70
f 21//72 18//69 23//71
g marija irena-3
v 461.265830 0.000000 -10.032604
v 561.539042 0.000000 -360.988845
v 461.265830 40.000000 -10.032604
v 548.596231 40.000000 -315.689006
v 516.355792 700.000000 -202.847471
v 527.344638 700.000000 -241.308429
v 625.518147 40.000000 -293.711316
v 538.187746 40.000000 11.945086
v 604.266553 700.000000 -219.330739
v 638.460958 0.000000 -339.011155
v 593.277708 700.000000 -180.869781
v 538.187746 0.000000 11.945086
vn -0.961524 0.000000 -0.274721
vn -0.961524 0.000000 -0.274721
vn -0.961524 0.000000 -0.274721
vn -0.961524 0.000000 -0.274721
vn -0.961524 0.000000 -0.274721
vn -0.961524 0.000000 -0.274721
vn 0.000000 1.000000 0.000000
vn 0.000000 1.000000 0.000000
vn 0.000000 1.000000 0.000000
vn 0.000000 1.000000 0.000000
vn 0.961524 0.000000 0.274721
vn 0.961524 0.000000 0.274721
vn 0.961524 0.000000 0.274721
vn 0.961524 0.000000 0.274721
vn 0.961524 0.000000 0.274721
vn 0.961524 0.000000 0.274721
vn 0.000000 -1.000000 0.000000
vn 0.000000 -1.000000 0.000000
vn 0.000000 -1.000000 0.000000
vn 0.000000 -1.000000 0.000000
vn -0.274721 0.000000 0.961524
vn -0.274721 0.000000 0.961524
vn -0.274721 0.000000 0.961524
vn -0.274721 0.000000 0.961524
vn 0.270478 0.175068 -0.946675
vn 0.270478 0.175068 -0.946675
vn 0.270478 0.175068 -0.946675
vn 0.270478 0.175068 -0.946675
vn -0.270478 -0.175068 0.946675
vn -0.270478 -0.175068 0.946675
vn -0.270478 -0.175068 0.946675
vn -0.270478 -0.175068 0.946675
vn 0.000000 1.000000 -0.000000
vn 0.000000 1.000000 -0.000000
vn 0.000000 1.000000 -0.000000
vn 0.000000 1.000000 -0.000000
usemtl Material_2
f 28//76 26//73 25//74
f 28//76 25//74 27//75
f 30//78 26//73 28//76
f 30//78 28//76 29//77
f 27//81 31//79 28//80
f 32//82 31//79 27//81
f 31//86 34//83 33//84
f 31//86 33//84 35//85
f 36//88 34//83 31//86
f 36//88 31//86 32//87
f 25//91 34//89 36//90
f 26//92 34//89 25//91
f 36//95 27//93 25//94
f 32//96 27//93 36//95
f 26//99 33//97 34//98
f 30//100 33//97 26//99
f 29//103 28//104 31//101
f 29//103 31//101 35//102
f 35//107 33//106 30//105
f 29//108 35//107 30//105
g marija irena-4
v 461.265830 0.000000 10.032604
v 561.539042 0.000000 360.988845
v 527.344638 700.000000 241.308429
v 516.355792 700.000000 202.847471
v 548.596231 40.000000 315.689006
v 461.265830 40.000000 10.032604
v 625.518147 40.000000 293.711316
v 538.187746 40.000000 -11.945086
v 604.266553 700.000000 219.330739
v 638.460958 0.000000 339.011155
v 538.187746 0.000000 -11.945086
v 593.277708 700.000000 180.869781
vn -0.961524 0.000000 0.274721
vn -0.961524 0.000000 0.274721
vn -0.961524 0.000000 0.274721
vn -0.961524 0.000000 0.274721
vn -0.961524 0.000000 0.274721
vn -0.961524 0.000000 0.274721
vn 0.000000 1.000000 0.000000
vn 0.000000 1.000000 0.000000
vn 0.000000 1.000000 0.000000
vn 0.000000 1.000000 0.000000
vn 0.961524 0.000000 -0.274721
vn 0.961524 0.000000 -0.274721
vn 0.961524 0.000000 -0.274721
vn 0.961524 0.000000 -0.274721
vn 0.961524 0.000000 -0.274721
vn 0.961524 0.000000 -0.274721
vn 0.000000 -1.000000 -0.000000
vn 0.000000 -1.000000 -0.000000
vn 0.000000 -1.000000 -0.000000
vn 0.000000 -1.000000 -0.000000
vn -0.274721 0.000000 -0.961524
vn -0.274721 0.000000 -0.961524
vn -0.274721 0.000000 -0.961524
vn -0.274721 0.000000 -0.961524
vn 0.270478 0.175068 0.946675
vn 0.270478 0.175068 0.946675
vn 0.270478 0.175068 0.946675
vn 0.270478 0.175068 0.946675
vn -0.270478 -0.175068 -0.946675
vn -0.270478 -0.175068 -0.946675
vn -0.270478 -0.175068 -0.946675
vn -0.270478 -0.175068 -0.946675
vn 0.000000 1.000000 -0.000000
vn 0.000000 1.000000 -0.000000
vn 0.000000 1.000000 -0.000000
vn 0.000000 1.000000 -0.000000
usemtl Material_2
f 41//113 42//114 37//109
f 41//113 38//110 39//111
f 41//113 37//109 38//110
f 41//113 39//111 40//112
f 43//116 44//117 41//115
f 42//118 41//115 44//117
f 43//123 48//124 45//119
f 43//123 46//120 47//121
f 43//123 45//119 46//120
f 43//123 47//121 44//122
f 38//127 47//125 46//126
f 37//128 47//125 38//127
f 44//131 37//129 42//130
f 47//132 37//129 44//131
f 46//135 45//136 39//133
f 46//135 39//133 38//134
f 41//139 40//140 48//137
f 41//139 48//137 43//138
f 45//143 40//141 39//144
f 45//143 48//142 40//141
g marija irena-5
v -461.265830 0.000000 10.032604
v -561.539042 0.000000 360.988845
v -461.265830 40.000000 10.032604
v -548.596231 40.000000 315.689006
v -516.355792 700.000000 202.847471
v -527.344638 700.000000 241.308429
v -625.518147 40.000000 293.711316
v -538.187746 40.000000 -11.945086
v -604.266553 700.000000 219.330739
v -638.460958 0.000000 339.011155
v -593.277708 700.000000 180.869781
v -538.187746 0.000000 -11.945086
vn 0.961524 0.000000 0.274721
vn 0.961524 0.000000 0.274721
vn 0.961524 0.000000 0.274721
vn 0.961524 0.000000 0.274721
vn 0.961524 0.000000 0.274721
vn 0.961524 0.000000 0.274721
vn 0.000000 1.000000 0.000000
vn 0.000000 1.000000 0.000000
vn 0.000000 1.000000 0.000000
vn 0.000000 1.000000 0.000000
vn -0.961524 0.000000 -0.274721
vn -0.961524 0.000000 -0.274721
vn -0.961524 0.000000 -0.274721
vn -0.961524 0.000000 -0.274721
vn -0.961524 0.000000 -0.274721
vn -0.961524 0.000000 -0.274721
vn 0.000000 -1.000000 -0.000000
vn 0.000000 -1.000000 -0.000000
vn 0.000000 -1.000000 -0.000000
vn 0.000000 -1.000000 -0.000000
vn 0.274721 0.000000 -0.961524
vn 0.274721 0.000000 -0.961524
vn 0.274721 0.000000 -0.961524
vn 0.274721 0.000000 -0.961524
vn -0.270478 0.175068 0.946675
vn -0.270478 0.175068 0.946675
vn -0.270478 0.175068 0.946675
vn -0.270478 0.175068 0.946675
vn 0.270478 -0.175068 -0.946675
vn 0.270478 -0.175068 -0.946675
vn 0.270478 -0.175068 -0.946675
vn 0.270478 -0.175068 -0.946675
vn -0.000000 1.000000 -0.000000
vn -0.000000 1.000000 -0.000000
vn -0.000000 1.000000 -0.000000
vn -0.000000 1.000000 -0.000000
usemtl Material_2
f 52//148 50//145 49//146
f 52//148 49//146 51//147
f 54//150 50//145 52//148
f 54//150 52//148 53//149
f 51//153 55//151 52//152
f 56//154 55//151 51//153
f 55//158 58//155 57//156
f 55//158 57//156 59//157
f 60//160 58//155 55//158
f 60//160 55//158 56//159
f 49//163 58//161 60//162
f 50//164 58//161 49//163
f 60//167 51//165 49//166
f 56//168 51//165 60//167
f 50//171 57//169 58//170
f 54//172 57//169 50//171
f 53//175 52//176 55//173
f 53//175 55//173 59//174
f 59//179 57//178 54//177
f 53//180 59//179 54//177
g marija irena-6
v 561.539042 0.000000 -360.988845
v 559.585076 40.000000 -354.149964
v 461.265830 0.000000 -10.032604
v 461.265830 40.000000 -10.032604
v 636.506992 40.000000 -332.172274
v 538.187746 40.000000 11.945086
v 638.460958 0.000000 -339.011155
v 538.187746 0.000000 11.945086
vn -0.961524 0.000000 -0.274721
vn -0.961524 0.000000 -0.274721
vn -0.961524 0.000000 -0.274721
vn -0.961524 0.000000 -0.274721
vn 0.000000 1.000000 0.000000
vn 0.000000 1.000000 0.000000
vn 0.000000 1.000000 0.000000
vn 0.000000 1.000000 0.000000
vn 0.961524 0.000000 0.274721
vn 0.961524 0.000000 0.274721
vn 0.961524 0.000000 0.274721
vn 0.961524 0.000000 0.274721
vn 0.000000 -1.000000 0.000000
vn 0.000000 -1.000000 0.000000
vn 0.000000 -1.000000 0.000000
vn 0.000000 -1.000000 0.000000
vn -0.274721 0.000000 0.961524
vn -0.274721 0.000000 0.961524
vn -0.274721 0.000000 0.961524
vn -0.274721 0.000000 0.961524
vn 0.270478 0.175068 -0.946675
vn 0.270478 0.175068 -0.946675
vn 0.270478 0.175068 -0.946675
vn 0.270478 0.175068 -0.946675
usemtl Material_2
f 63//183 62//181 61//182
f 64//184 62//181 63//183
f 64//187 65//185 62//186
f 66//188 65//185 64//187
f 68//192 67//189 65//190
f 68//192 65//190 66//191
f 68//195 61//193 67//194
f 63//196 61//193 68//195
f 68//199 64//197 63//198
f 66//200 64//197 68//199
f 65//203 67//202 61//201
f 62//204 65//203 61//201
g marija irena-7
v 559.585076 40.000000 354.149964
v 561.539042 0.000000 360.988845
v 461.265830 40.000000 10.032604
v 461.265830 0.000000 10.032604
v 636.506992 40.000000 332.172274
v 538.187746 40.000000 -11.945086
v 638.460958 0.000000 339.011155
v 538.187746 0.000000 -11.945086
vn -0.961524 0.000000 0.274721
vn -0.961524 0.000000 0.274721
vn -0.961524 0.000000 0.274721
vn -0.961524 0.000000 0.274721
vn 0.000000 1.000000 0.000000
vn 0.000000 1.000000 0.000000
vn 0.000000 1.000000 0.000000
vn 0.000000 1.000000 0.000000
vn 0.961524 0.000000 -0.274721
vn 0.961524 0.000000 -0.274721
vn 0.961524 0.000000 -0.274721
vn 0.961524 0.000000 -0.274721
vn 0.000000 -1.000000 -0.000000
vn 0.000000 -1.000000 -0.000000
vn 0.000000 -1.000000 -0.000000
vn 0.000000 -1.000000 -0.000000
vn -0.274721 0.000000 -0.961524
vn -0.274721 0.000000 -0.961524
vn -0.274721 0.000000 -0.961524
vn -0.274721 0.000000 -0.961524
vn 0.270478 0.175068 0.946675
vn 0.270478 0.175068 0.946675
vn 0.270478 0.175068 0.946675
vn 0.270478 0.175068 0.946675
usemtl Material_2
f 72//208 70//205 69//206
f 72//208 69//206 71//207
f 73//210 74//211 69//209
f 71//212 69//209 74//211
f 76//215 73//213 75//214
f 74//216 73//213 76//215
f 72//219 75//217 70//218
f 76//220 75//217 72//219
f 74//223 72//221 71//222
f 76//224 72//221 74//223
f 75//227 69//225 70//228
f 75//227 73//226 69//225
g marija irena-8
v -561.539042 0.000000 360.988845
v -559.585076 40.000000 354.149964
v -461.265830 0.000000 10.032604
v -461.265830 40.000000 10.032604
v -636.506992 40.000000 332.172274
v -538.187746 40.000000 -11.945086
v -638.460958 0.000000 339.011155
v -538.187746 0.000000 -11.945086
vn 0.961524 0.000000 0.274721
vn 0.961524 0.000000 0.274721
vn 0.961524 0.000000 0.274721
vn 0.961524 0.000000 0.274721
vn 0.000000 1.000000 0.000000
vn 0.000000 1.000000 0.000000
vn 0.000000 1.000000 0.000000
vn 0.000000 1.000000 0.000000
vn -0.961524 0.000000 -0.274721
vn -0.961524 0.000000 -0.274721
vn -0.961524 0.000000 -0.274721
vn -0.961524 0.000000 -0.274721
vn 0.000000 -1.000000 -0.000000
vn 0.000000 -1.000000 -0.000000
vn 0.000000 -1.000000 -0.000000
vn 0.000000 -1.000000 -0.000000
vn 0.274721 0.000000 -0.961524
vn 0.274721 0.000000 -0.961524
vn 0.274721 0.000000 -0.961524
vn 0.274721 0.000000 -0.961524
vn -0.270478 0.175068 0.946675
vn -0.270478 0.175068 0.946675
vn -0.270478 0.175068 0.946675
vn -0.270478 0.175068 0.946675
usemtl Material_2
f 79//231 78//229 77//230
f 80//232 78//229 79//231
f 80//235 81//233 78//234
f 82//236 81//233 80//235
f 84//240 83//237 81//238
f 84//240 81//238 82//239
f 84//243 77//241 83//242
f 79//244 77//241 84//243
f 84//247 80//245 79//246
f 82//248 80//245 84//247
f 81//251 83//250 77//249
f 78//252 81//251 77//249
g marija irena-9
v -461.265830 0.000000 -10.032604
v -561.539042 0.000000 -360.988845
v -527.344638 700.000000 -241.308429
v -516.355792 700.000000 -202.847471
v -548.596231 40.000000 -315.689006
v -461.265830 40.000000 -10.032604
v -625.518147 40.000000 -293.711316
v -538.187746 40.000000 11.945086
v -604.266553 700.000000 -219.330739
v -638.460958 0.000000 -339.011155
v -538.187746 0.000000 11.945086
v -593.277708 700.000000 -180.869781
vn 0.961524 0.000000 -0.274721
vn 0.961524 0.000000 -0.274721
vn 0.961524 0.000000 -0.274721
vn 0.961524 0.000000 -0.274721
vn 0.961524 0.000000 -0.274721
vn 0.961524 0.000000 -0.274721
vn 0.000000 1.000000 0.000000
vn 0.000000 1.000000 0.000000
vn 0.000000 1.000000 0.000000
vn 0.000000 1.000000 0.000000
vn -0.961524 0.000000 0.274721
vn -0.961524 0.000000 0.274721
vn -0.961524 0.000000 0.274721
vn -0.961524 0.000000 0.274721
vn -0.961524 0.000000 0.274721
vn -0.961524 0.000000 0.274721
vn -0.000000 -1.000000 0.000000
vn -0.000000 -1.000000 0.000000
vn -0.000000 -1.000000 0.000000
vn -0.000000 -1.000000 0.000000
vn 0.274721 -0.000000 0.961524
vn 0.274721 -0.000000 0.961524
vn 0.274721 -0.000000 0.961524
vn 0.274721 -0.000000 0.961524
vn -0.270478 0.175068 -0.946675
vn -0.270478 0.175068 -0.946675
vn -0.270478 0.175068 -0.946675
vn -0.270478 0.175068 -0.946675
vn 0.270478 -0.175068 0.946675
vn 0.270478 -0.175068 0.946675
vn 0.270478 -0.175068 0.946675
vn 0.270478 -0.175068 0.946675
vn -0.000000 1.000000 -0.000000
vn -0.000000 1.000000 -0.000000
vn -0.000000 1.000000 -0.000000
vn -0.000000 1.000000 -0.000000
usemtl Material_2
f 89//257 90//258 85//253
f 89//257 86//254 87//255
f 89//257 85//253 86//254
f 89//257 87//255 88//256
f 91//260 92//261 89//259
f 90//262 89//259 92//261
f 91//267 96//268 93//263
f 91//267 94//264 95//265
f 91//267 93//263 94//264
f 91//267 95//265 92//266
f 86//271 95//269 94//270
f 85//272 95//269 86//271
f 92//275 85//273 90//274
f 95//276 85//273 92//275
f 94//279 93//280 87//277
f 94//279 87//277 86//278
f 89//283 88//284 96//281
f 89//283 96//281 91//282
f 93//287 88//285 87//288
f 93//287 96//286 88//285
g marija irena-10
v 500.000000 0.000000 40.000000
v 500.000000 0.000000 -40.000000
v 500.000000 40.000000 -40.000000
v 500.000000 40.000000 40.000000
v -500.000000 0.000000 -40.000000
v -500.000000 40.000000 -40.000000
v -500.000000 0.000000 40.000000
v -500.000000 40.000000 40.000000
vn 1.000000 -0.000000 0.000000
vn 1.000000 -0.000000 0.000000
vn 1.000000 -0.000000 0.000000
vn 1.000000 -0.000000 0.000000
vn -0.000000 -0.000000 -1.000000
vn -0.000000 -0.000000 -1.000000
vn -0.000000 -0.000000 -1.000000
vn -0.000000 -0.000000 -1.000000
vn -1.000000 -0.000000 0.000000
vn -1.000000 -0.000000 0.000000
vn -1.000000 -0.000000 0.000000
vn -1.000000 -0.000000 0.000000
vn -0.000000 -0.000000 1.000000
vn -0.000000 -0.000000 1.000000
vn -0.000000 -0.000000 1.000000
vn -0.000000 -0.000000 1.000000
vn 0.000000 1.000000 -0.000000
vn 0.000000 1.000000 -0.000000
vn 0.000000 1.000000 -0.000000
vn 0.000000 1.000000 -0.000000
vn -0.000000 -1.000000 0.000000
vn -0.000000 -1.000000 0.000000
vn -0.000000 -1.000000 0.000000
vn -0.000000 -1.000000 0.000000
usemtl Material_2
f 99//291 100//290 97//289
f 98//292 99//291 97//289
f 102//295 99//294 98//293
f 101//296 102//295 98//293
f 104//299 102//298 101//297
f 103//300 104//299 101//297
f 100//303 104//302 103//301
f 97//304 100//303 103//301
f 99//306 102//307 100//305
f 104//308 100//305 102//307
f 103//311 98//309 97//312
f 103//311 101//310 98//309
